<?xml version="1.0" encoding="UTF-8"?>
<svg version="1.1" xmlns="http://www.w3.org/2000/svg" width="2048" height="2048">
<path d="M0 0 C675.84 0 1351.68 0 2048 0 C2048 675.84 2048 1351.68 2048 2048 C1372.16 2048 696.32 2048 0 2048 C0 1372.16 0 696.32 0 0 Z " fill="#030303" transform="translate(0,0)"/>
<path d="M0 0 C2.82688287 0.0109219 5.65371813 0.01046543 8.48061848 0.00986195 C11.87104996 0.01019868 15.26143453 0.01902137 18.65185547 0.02764893 C20.54234367 0.02931816 20.54234367 0.02931816 22.47102356 0.03102112 C23.63711655 0.03740097 24.80320953 0.04378082 26.00463867 0.050354 C27.53988945 0.0560717 27.53988945 0.0560717 29.1061554 0.06190491 C31.50388312 0.18142644 33.49324107 0.53700232 35.78857422 1.19561768 C37.13966806 1.35564203 38.49455071 1.48571563 39.85107422 1.59014893 C49.61456515 2.41393722 59.0823667 3.69285338 68.66918945 5.72735596 C74.80642672 7.02680486 80.91044834 8.00898335 87.13623047 8.80108643 C89.78857422 9.19561768 89.78857422 9.19561768 92.78857422 10.19561768 C92.78857422 10.85561768 92.78857422 11.51561768 92.78857422 12.19561768 C94.06216797 12.30647705 95.33576172 12.41733643 96.64794922 12.53155518 C101.93763177 13.12411524 106.92231101 14.38354827 112.03857422 15.82061768 C113.44647217 16.20951172 113.44647217 16.20951172 114.8828125 16.60626221 C124.96929433 19.44271742 134.89124817 22.76385074 144.78857422 26.19561768 C144.78857422 26.85561768 144.78857422 27.51561768 144.78857422 28.19561768 C145.71476562 28.45085205 145.71476562 28.45085205 146.65966797 28.71124268 C152.64754067 30.42466744 158.16380398 32.54150531 163.78857422 35.19561768 C165.01351222 35.75751899 166.23880398 36.31864944 167.46435547 36.87921143 C175.36424074 40.51721758 183.14800225 44.34442265 190.85107422 48.38311768 C191.62370605 48.78675537 192.39633789 49.19039307 193.19238281 49.60626221 C197.59217189 51.93612238 201.81482462 54.4170175 205.9621582 57.17340088 C207.89189811 58.25344646 209.62943976 58.75795126 211.78857422 59.19561768 C211.78857422 59.85561768 211.78857422 60.51561768 211.78857422 61.19561768 C212.51689453 61.45987549 213.24521484 61.7241333 213.99560547 61.99639893 C216.8055742 63.20291697 219.00166597 64.59581783 221.47607422 66.38311768 C222.79478516 67.32864502 222.79478516 67.32864502 224.14013672 68.29327393 C225.01412109 68.92104736 225.88810547 69.5488208 226.78857422 70.19561768 C228.30895695 71.23794192 229.82979338 72.27960468 231.35107422 73.32061768 C242.50581568 81.14819921 253.25645366 89.51311732 263.49853516 98.5010376 C266.44457096 101.13179997 266.44457096 101.13179997 269.78857422 103.19561768 C269.78857422 103.85561768 269.78857422 104.51561768 269.78857422 105.19561768 C270.35705078 105.44698486 270.92552734 105.69835205 271.51123047 105.95733643 C274.10222554 107.36616222 276.04191119 109.02836505 278.22607422 111.00811768 C279.33789062 112.00778564 279.33789062 112.00778564 280.47216797 113.02764893 C285.4159444 117.65462349 290.05018885 122.5563346 294.66357422 127.50811768 C295.28925293 128.17963867 295.91493164 128.85115967 296.55957031 129.54302979 C300.08876021 133.34089528 303.60296228 137.14422824 306.97607422 141.08233643 C308.43825179 142.78715984 309.92253432 144.47301023 311.41357422 146.15264893 C318.97119612 154.72406751 325.70495041 163.74276503 332.28515625 173.07940674 C333.63961524 174.98594304 335.01629759 176.87212119 336.40966797 178.75030518 C346.46020239 192.36177079 354.75043842 207.13339057 362.94873047 221.91046143 C364.08396136 223.93748728 365.27020372 225.93799515 366.53466797 227.88702393 C367.78857422 230.19561768 367.78857422 230.19561768 367.78857422 234.19561768 C368.44857422 234.19561768 369.10857422 234.19561768 369.78857422 234.19561768 C372.75864735 239.91666019 375.43875384 245.64518182 377.76513672 251.65655518 C378.80713598 254.24166784 379.96923644 256.74011891 381.16357422 259.25811768 C383.70070263 264.7473986 385.69762262 270.37604127 387.64550781 276.09429932 C388.75451654 279.33668862 389.90868703 282.47002684 391.28466797 285.61358643 C393.09262352 289.91980782 394.41918812 294.2792029 395.72607422 298.75811768 C395.98839844 299.64869873 396.25072266 300.53927979 396.52099609 301.45684814 C397.04417937 303.23624975 397.56555035 305.01618538 398.08496094 306.79669189 C398.66310029 308.76782211 399.25688607 310.73435662 399.85498047 312.69952393 C405.1784741 330.49647543 409.18202672 348.80560932 411.78857422 367.19561768 C411.98362549 368.5508252 411.98362549 368.5508252 412.18261719 369.93341064 C412.60377653 372.89442377 413.01155154 375.85694836 413.41357422 378.82061768 C413.59859497 380.16096069 413.59859497 380.16096069 413.78735352 381.52838135 C415.51308721 394.76696818 415.94782781 408.05766695 415.99169922 421.39483643 C415.9945266 422.08314859 415.99735397 422.77146076 416.00026703 423.48063087 C416.01509538 427.13213071 416.02442429 430.78359279 416.02880859 434.43511963 C416.03316213 437.3773052 416.04695603 440.31919239 416.06982422 443.2612915 C416.2128702 462.05546199 415.47686361 480.34961631 413.17121887 499.02708435 C412.65834817 503.27396952 412.21702529 507.52716918 411.7802124 511.78245544 C410.65205803 522.35655381 408.86201254 532.77252101 406.78857422 543.19561768 C406.41478638 545.08365112 406.41478638 545.08365112 406.03344727 547.00982666 C404.68001638 553.59332972 403.03496235 559.86795842 400.78857422 566.19561768 C399.94172106 568.8731206 399.14325555 571.56399182 398.35107422 574.25811768 C398.13572021 574.98418213 397.92036621 575.71024658 397.69848633 576.45831299 C396.44079308 580.75950292 395.32562215 585.06874237 394.31762695 589.43463135 C392.69637627 596.42272234 390.40458261 602.660949 387.22998047 609.11358643 C385.38676213 613.05477685 384.09948673 617.08210069 382.78466797 621.22296143 C381.40499068 625.34035129 379.72186233 629.3047237 378.01904297 633.29718018 C376.50935501 636.85333404 375.09195293 640.44231034 373.68310547 644.03936768 C372.80885127 646.14674023 371.83430433 648.16865182 370.78857422 650.19561768 C370.12857422 650.19561768 369.46857422 650.19561768 368.78857422 650.19561768 C368.44246094 651.64581299 368.44246094 651.64581299 368.08935547 653.12530518 C366.72024397 657.88795111 364.39519537 662.01867992 361.97607422 666.32061768 C361.2539978 667.61745483 361.2539978 667.61745483 360.51733398 668.94049072 C346.63526148 693.61899023 331.03693424 717.51409162 312.78857422 739.19561768 C311.91596348 740.24361585 311.04357681 741.29180064 310.17138672 742.34014893 C304.71093625 748.87534544 299.08310429 755.22174504 293.29638672 761.46905518 C290.61045897 764.38926946 287.99880899 767.36322254 285.42138672 770.37921143 C272.14347383 785.15009538 255.94661029 797.44797626 240.35107422 809.63311768 C239.64257324 810.18781738 238.93407227 810.74251709 238.20410156 811.31402588 C229.19283508 818.30147803 219.78912545 824.56453978 210.10107422 830.57061768 C209.04380127 831.22691162 207.98652832 831.88320557 206.8972168 832.55938721 C204.80243546 833.85771939 202.70668367 835.1544874 200.60986328 836.44952393 C198.25431357 837.90737193 195.90657937 839.37647721 193.56201172 840.85186768 C184.71903004 846.3598021 175.50246559 850.83064423 166.03417969 855.16094971 C163.99584813 856.10011574 161.9701886 857.06063039 159.94873047 858.03546143 C145.97195997 864.72792157 131.76481427 870.79707898 116.69946289 874.56134033 C113.57041688 875.35282856 110.77744495 876.20127994 107.89404297 877.66827393 C103.7295952 879.71644887 99.46882894 880.71868541 94.97607422 881.82061768 C93.26047883 882.24729425 91.54559025 882.67682646 89.83154297 883.10968018 C89.07897217 883.29482178 88.32640137 883.47996338 87.55102539 883.67071533 C85.77940059 884.04617241 85.77940059 884.04617241 84.78857422 885.19561768 C83.06660754 885.50898458 81.33479151 885.76813352 79.60107422 886.00811768 C75.29068311 886.63534089 71.012261 887.32651118 66.73388672 888.14483643 C65.82662842 888.31716797 64.91937012 888.48949951 63.98461914 888.66705322 C62.22563821 889.00409134 60.46783073 889.34735472 58.71166992 889.6987915 C37.81457406 893.66980561 16.8198828 893.57128006 -4.36181641 893.56622314 C-7.91410795 893.56606109 -11.46588105 893.57989663 -15.01806641 893.60723877 C-65.8827112 893.99277738 -65.8827112 893.99277738 -84.21142578 887.19561768 C-85.99612033 886.86394878 -87.78880535 886.57300564 -89.58642578 886.32061768 C-106.11910503 883.70157938 -122.42097502 878.6326227 -138.21142578 873.19561768 C-138.21142578 872.53561768 -138.21142578 871.87561768 -138.21142578 871.19561768 C-138.81728516 871.09764893 -139.42314453 870.99968018 -140.04736328 870.89874268 C-146.5348439 869.7409769 -152.16887608 867.77152532 -158.21142578 865.19561768 C-159.49289528 864.68119386 -160.77554085 864.16969414 -162.05908203 863.66046143 C-172.0566446 859.67189897 -181.68974553 855.2112019 -191.21142578 850.19561768 C-192.10780762 849.72349854 -193.00418945 849.25137939 -193.92773438 848.76495361 C-204.79854261 843.01056825 -215.5747893 837.10566272 -226.14892578 830.82061768 C-226.93428711 830.35752197 -227.71964844 829.89442627 -228.52880859 829.41729736 C-234.09200371 826.06312343 -239.13584591 822.23994906 -244.21142578 818.19561768 C-245.62373323 817.10959917 -247.03904696 816.02747758 -248.45751953 814.94952393 C-259.71779189 806.3765571 -270.77423501 797.76946623 -281.21142578 788.19561768 C-282.22799049 787.27204157 -283.2449318 786.34887986 -284.26220703 785.42608643 C-289.26365758 780.8782522 -294.21841091 776.31273264 -298.90673828 771.43780518 C-300.21278947 770.07291124 -300.21278947 770.07291124 -302.21142578 769.19561768 C-302.65099609 768.44667236 -303.09056641 767.69772705 -303.54345703 766.92608643 C-305.36180363 763.94944879 -307.37345195 761.90672312 -309.89892578 759.50811768 C-314.80066414 754.6911356 -319.04404651 749.6508329 -323.21142578 744.19561768 C-324.21109285 742.90108968 -325.21112094 741.60684042 -326.21142578 740.31280518 C-340.852134 721.32170258 -354.05967057 702.18008313 -365.96728516 681.35919189 C-367.06249171 679.45461566 -368.17018709 677.55871802 -369.28955078 675.66827393 C-372.86878772 669.62247587 -376.13540093 663.51006621 -379.21142578 657.19561768 C-380.76522384 654.11507774 -382.32163057 651.03587258 -383.87939453 647.95733643 C-385.11193377 645.40189584 -386.17196873 642.83391831 -387.21142578 640.19561768 C-387.9941717 638.46239458 -388.78624016 636.73335866 -389.58642578 635.00811768 C-391.62745207 630.54787493 -393.51346475 626.05320081 -395.29736328 621.48468018 C-396.13000433 619.39951926 -397.03125035 617.36352633 -397.96142578 615.32061768 C-399.21142578 612.19561768 -399.21142578 612.19561768 -399.21142578 608.19561768 C-399.87142578 608.19561768 -400.53142578 608.19561768 -401.21142578 608.19561768 C-401.45376953 607.0844458 -401.69611328 605.97327393 -401.94580078 604.82843018 C-403.96473621 595.35433933 -403.96473621 595.35433933 -407.21142578 586.25811768 C-410.02690915 579.71787032 -411.2390861 572.73983899 -412.66845703 565.79718018 C-413.22441643 563.1333747 -413.80901969 560.47709799 -414.39892578 557.82061768 C-418.07292563 541.0590782 -420.77510283 524.17381755 -423.21142578 507.19561768 C-423.34178223 506.29085693 -423.47213867 505.38609619 -423.60644531 504.45391846 C-426.54664986 483.38172225 -426.31060408 461.96106584 -426.38665771 440.72836304 C-426.39468487 438.62131373 -426.40567472 436.5142731 -426.41998291 434.40725708 C-426.53642465 415.21723481 -425.90341511 395.90344816 -422.27392578 377.00811768 C-422.10135254 376.06089844 -421.9287793 375.1136792 -421.75097656 374.13775635 C-420.62378134 368.0549688 -419.32323278 362.02626826 -417.85595703 356.01593018 C-417.2003701 353.14724068 -416.71984572 350.29129118 -416.27392578 347.38311768 C-415.39575901 341.78666506 -414.07165045 336.35983523 -412.61987305 330.88970947 C-411.79821602 327.75250959 -411.1435884 324.70418507 -410.69970703 321.48858643 C-410.26595451 318.56335944 -409.66925126 316.48377386 -408.46142578 313.82061768 C-405.37091259 306.5033732 -403.37143101 298.82645583 -401.21142578 291.19561768 C-400.55142578 291.19561768 -399.89142578 291.19561768 -399.21142578 291.19561768 C-399.11861328 289.58686768 -399.11861328 289.58686768 -399.02392578 287.94561768 C-398.27217688 281.93162646 -395.64116337 276.69161566 -393.21142578 271.19561768 C-392.39500501 269.21806513 -391.58246423 267.23890604 -390.77392578 265.25811768 C-380.82569554 241.43797633 -369.10641171 217.3194159 -354.21142578 196.19561768 C-353.52048828 195.10249268 -352.82955078 194.00936768 -352.11767578 192.88311768 C-351.17408203 191.55280518 -351.17408203 191.55280518 -350.21142578 190.19561768 C-349.55142578 190.19561768 -348.89142578 190.19561768 -348.21142578 190.19561768 C-348.11603516 189.64647705 -348.02064453 189.09733643 -347.92236328 188.53155518 C-343.55500859 174.18167547 -328.23486839 160.0751962 -318.59521484 148.82208252 C-317.18177982 147.16077269 -315.78460375 145.48696192 -314.39111328 143.80889893 C-308.95117943 137.27361939 -303.33384887 131.11010942 -297.21142578 125.19561768 C-294.3955041 122.39872249 -291.6051144 119.57839657 -288.82861328 116.74249268 C-282.42873144 110.23166475 -276.03933964 103.93991512 -268.85595703 98.28155518 C-266.07872546 96.09094711 -263.40009891 93.8063196 -260.71142578 91.50811768 C-242.21462756 76.08212383 -222.1926951 62.94919823 -201.21142578 51.19561768 C-200.47166504 50.77908936 -199.7319043 50.36256104 -198.96972656 49.93341064 C-196.91068446 48.77988175 -194.84455686 47.64068701 -192.77392578 46.50811768 C-192.16548828 46.16893311 -191.55705078 45.82974854 -190.93017578 45.48028564 C-187.65202392 43.71893241 -186.04874544 43.19561768 -182.21142578 43.19561768 C-182.21142578 42.53561768 -182.21142578 41.87561768 -182.21142578 41.19561768 C-180.29992911 40.18577038 -178.38201009 39.18807273 -176.46142578 38.19561768 C-175.39408203 37.63874268 -174.32673828 37.08186768 -173.22705078 36.50811768 C-170.21142578 35.19561768 -170.21142578 35.19561768 -166.21142578 35.19561768 C-166.21142578 34.53561768 -166.21142578 33.87561768 -166.21142578 33.19561768 C-165.43798828 32.94167236 -164.66455078 32.68772705 -163.86767578 32.42608643 C-156.7785438 30.08615354 -156.7785438 30.08615354 -149.77392578 27.50811768 C-146.87857681 26.44141016 -144.2479462 25.67007399 -141.21142578 25.19561768 C-141.21142578 24.53561768 -141.21142578 23.87561768 -141.21142578 23.19561768 C-140.52177734 23.01385986 -139.83212891 22.83210205 -139.12158203 22.64483643 C-134.67436259 21.45525098 -130.25409318 20.25366573 -125.89892578 18.75811768 C-117.6555863 15.94620654 -109.25634279 13.5415372 -100.73095703 11.75421143 C-97.30997705 10.9957616 -93.91955275 10.12143302 -90.52392578 9.25811768 C-77.45410899 5.95376046 -64.6580033 3.23740361 -51.16064453 2.57452393 C-48.40024333 2.40763255 -45.71704512 2.12307167 -42.97875977 1.72125244 C-28.70142456 -0.31319772 -14.38795723 -0.07028164 0 0 Z " fill="#FBFCF9" transform="translate(1498.21142578125,172.80438232421875)"/>
<path d="M0 0 C2.59456427 -0.00220293 5.18871226 -0.02052366 7.78320312 -0.03930664 C22.71762023 -0.08951169 37.14147118 1.3666868 51.80517578 4.14013672 C55.20300451 4.77805507 58.53338612 5.27025201 61.98632812 5.47045898 C79.50066906 6.54081373 96.23521502 12.19670255 112.96289062 17.18530273 C114.18782227 17.55042969 115.41275391 17.91555664 116.67480469 18.29174805 C121.87049368 19.86497453 127.0100738 21.4916266 132.07128906 23.45678711 C134.17068059 24.26532923 136.28617037 25.0163995 138.40820312 25.76342773 C147.20815419 28.89327358 155.58763538 32.29130964 163.86523438 36.61889648 C167.45361025 38.43344721 171.09884931 39.89660519 174.87695312 41.26342773 C177.19648465 42.28853904 178.94132013 43.66511381 180.96289062 45.18530273 C182.87504443 46.01831429 182.87504443 46.01831429 184.83789062 46.62280273 C188.66554607 47.98982254 191.6048763 49.86052359 194.96289062 52.18530273 C199.91018919 55.17144842 204.85742762 58.14991662 210.04492188 60.70092773 C212.77292341 62.08866613 215.16394752 63.59556581 217.65039062 65.37280273 C218.93429687 66.28739258 218.93429687 66.28739258 220.24414062 67.22045898 C225.53177289 71.0418369 230.81130429 74.87413942 236.07226562 78.73217773 C238.93644975 80.81299526 241.71354144 82.75558909 244.96289062 84.18530273 C244.96289062 84.84530273 244.96289062 85.50530273 244.96289062 86.18530273 C245.53136719 86.4444043 246.09984375 86.70350586 246.68554688 86.97045898 C255.93476623 91.90443363 264.00047554 100.36074328 271.96289062 107.18530273 C272.81496094 107.91104492 273.66703125 108.63678711 274.54492188 109.38452148 C278.67408655 112.96500669 282.34782484 116.64890007 285.85742188 120.83374023 C287.61363713 122.79522741 289.40658061 124.63513805 291.28710938 126.47436523 C292.1770459 127.34508667 292.1770459 127.34508667 293.08496094 128.23339844 C294.28248054 129.39725994 295.48615805 130.55482328 296.69628906 131.70556641 C298.17409103 133.14380756 299.57522348 134.65991224 300.96289062 136.18530273 C300.96289062 137.17530273 300.96289062 138.16530273 300.96289062 139.18530273 C301.52878906 139.41475586 302.0946875 139.64420898 302.67773438 139.88061523 C305.56611489 141.5297077 307.33530099 143.56263706 309.52539062 146.06030273 C310.28980469 146.92397461 311.05421875 147.78764648 311.84179688 148.67749023 C316.96289062 154.73226406 316.96289062 154.73226406 316.96289062 157.18530273 C317.62289062 157.18530273 318.28289063 157.18530273 318.96289062 157.18530273 C320.25195312 158.61108398 320.25195312 158.61108398 321.58789062 160.49780273 C322.03390625 161.11268555 322.47992187 161.72756836 322.93945312 162.36108398 C323.96289062 164.18530273 323.96289062 164.18530273 323.96289062 167.18530273 C324.62289062 167.18530273 325.28289063 167.18530273 325.96289062 167.18530273 C327.45239258 169.05517578 327.45239258 169.05517578 329.20117188 171.69702148 C330.17461548 173.15966431 330.17461548 173.15966431 331.16772461 174.65185547 C331.86325439 175.71476807 332.55878418 176.77768066 333.27539062 177.87280273 C333.99090088 178.95827393 334.70641113 180.04374512 335.44360352 181.16210938 C345.29773597 196.15237996 354.86161737 211.23748641 362.97949219 227.24926758 C363.93829629 229.13688341 364.91363187 231.01510184 365.89257812 232.89233398 C369.32449126 239.57204475 372.24967297 246.27199817 374.85351562 253.31420898 C375.75648636 255.65112268 376.72365828 257.79384092 377.90039062 259.99780273 C393.43436823 289.94731155 401.69986167 327.20090168 406.51831055 360.26074219 C406.95695358 363.14624732 407.47791261 366.00619099 408.02539062 368.87280273 C408.98102415 374.51029976 409.33240275 380.10652415 409.53344727 385.81298828 C409.70720215 390.06874546 410.10694852 394.21837555 410.70013428 398.43731689 C412.63038572 412.9410764 412.26528596 427.60460283 412.22363281 442.20629883 C412.21225835 446.24240456 412.2189881 450.27824591 412.23052216 454.3143425 C412.32600637 493.75653652 412.32600637 493.75653652 408.96289062 507.18530273 C408.84319892 508.77289216 408.7620196 510.36362263 408.70898438 511.95483398 C407.91162226 528.66844556 404.35380277 543.79636516 399.88769531 559.81079102 C398.72336165 564.0593179 397.68874668 568.32770141 396.71289062 572.62280273 C390.55471574 599.26301301 390.55471574 599.26301301 386.10351562 607.71655273 C383.5977097 612.69603886 381.91529442 617.88812355 380.21289062 623.18530273 C379.73916016 624.63356445 379.73916016 624.63356445 379.25585938 626.11108398 C378.48597092 628.46740926 377.72178997 630.8254201 376.96289062 633.18530273 C376.30289063 633.18530273 375.64289062 633.18530273 374.96289062 633.18530273 C374.8365625 633.7331543 374.71023438 634.28100586 374.58007812 634.84545898 C373.88095326 637.49593868 373.01143906 640.04187862 372.08789062 642.62280273 C371.76046875 643.54963867 371.43304687 644.47647461 371.09570312 645.43139648 C369.9479551 648.22161151 368.51384249 650.60168191 366.96289062 653.18530273 C366.49109375 654.29518555 366.01929688 655.40506836 365.53320312 656.54858398 C363.61166537 660.99871248 361.22755343 665.04424588 358.74804688 669.19897461 C357.0208375 672.14558086 355.51932141 674.78770261 354.96289062 678.18530273 C354.30289063 678.18530273 353.64289062 678.18530273 352.96289062 678.18530273 C352.59357422 679.45180664 352.59357422 679.45180664 352.21679688 680.74389648 C350.8375385 684.52933771 348.99929624 687.83221736 346.90039062 691.24780273 C346.49973389 691.90627197 346.09907715 692.56474121 345.6862793 693.24316406 C342.10671584 699.0656496 338.27224889 704.687954 334.31591797 710.26098633 C332.74856182 712.49012764 331.2090675 714.73737508 329.66992188 716.98608398 C323.28195803 726.2828764 316.76507534 735.22578679 309.28417969 743.66967773 C307.9655012 745.1823082 306.69096465 746.72309077 305.42382812 748.27905273 C298.68445011 756.48308265 291.32207232 764.0413042 283.83789062 771.56030273 C283.31658569 772.08678406 282.79528076 772.61326538 282.25817871 773.15570068 C280.76709359 774.65846884 279.26881534 776.15362113 277.76757812 777.64624023 C276.89085449 778.52070801 276.01413086 779.39517578 275.11083984 780.29614258 C272.96289062 782.18530273 272.96289062 782.18530273 270.96289062 782.18530273 C270.96289062 782.84530273 270.96289062 783.50530273 270.96289062 784.18530273 C269.59960937 785.56030273 269.59960937 785.56030273 267.65039062 787.18530273 C264.35964923 789.96669459 261.21303066 792.84455933 258.08789062 795.81030273 C251.20703349 802.09616246 243.63405027 807.38890617 236.01708984 812.73901367 C234.22071163 814.00378008 232.43483605 815.28120748 230.65429688 816.56811523 C229.76613281 817.20491211 228.87796875 817.84170898 227.96289062 818.49780273 C227.22039063 819.03018555 226.47789062 819.56256836 225.71289062 820.11108398 C223.96289062 821.18530273 223.96289062 821.18530273 221.96289062 821.18530273 C221.96289062 821.84530273 221.96289062 822.50530273 221.96289062 823.18530273 C219.66034858 824.80504308 217.3661742 826.29029543 214.96289062 827.74780273 C214.2489917 828.18672852 213.53509277 828.6256543 212.79956055 829.07788086 C207.676507 832.20362181 202.49760934 835.2285334 197.27539062 838.18530273 C196.61732422 838.55856689 195.95925781 838.93183105 195.28125 839.31640625 C191.91694453 841.19428935 188.58136535 842.85691431 184.96289062 844.18530273 C184.96289062 844.84530273 184.96289062 845.50530273 184.96289062 846.18530273 C184.44082031 846.41604492 183.91875 846.64678711 183.38085938 846.88452148 C175.12283294 850.54350693 166.89706482 854.26138957 158.73779297 858.13598633 C151.22427347 861.69956024 143.67849167 865.07721634 135.96289062 868.18530273 C134.71122935 868.70657652 133.45994779 869.22876267 132.20898438 869.75170898 C130.89795997 870.29249441 129.58676396 870.832864 128.27539062 871.37280273 C126.50615234 872.10563477 126.50615234 872.10563477 124.70117188 872.85327148 C121.2374177 874.08748274 117.93054276 874.8915713 114.3449707 875.63769531 C110.97022998 876.41350175 107.71154941 877.48342727 104.41772461 878.5456543 C74.06540254 888.3033836 42.53776921 893.37067609 10.66601562 893.31811523 C9.35236023 893.31907196 8.03870483 893.32002869 6.6852417 893.3210144 C3.9255656 893.32247388 1.16592224 893.32039542 -1.59375 893.31567383 C-5.07405513 893.30999931 -8.55428349 893.31335356 -12.03458595 893.31910229 C-51.00330085 893.37418997 -51.00330085 893.37418997 -64.16210938 890.62280273 C-65.18498047 890.41494141 -65.18498047 890.41494141 -66.22851562 890.20288086 C-67.83374311 889.87505271 -69.43588627 889.53216169 -71.03710938 889.18530273 C-71.03710938 888.52530273 -71.03710938 887.86530273 -71.03710938 887.18530273 C-71.9575 887.2278418 -72.87789063 887.27038086 -73.82617188 887.31420898 C-79.13484663 887.30490485 -84.22861241 886.17998452 -89.41210938 885.12280273 C-90.49685547 884.90382324 -91.58160156 884.68484375 -92.69921875 884.45922852 C-116.99732188 879.39187799 -140.51424932 871.91081302 -162.90966797 861.20043945 C-165.24690862 860.08519426 -167.58887083 858.98029008 -169.93164062 857.87670898 C-171.61270806 857.08390529 -173.29369859 856.29093851 -174.97460938 855.49780273 C-175.75529785 855.12945313 -176.53598633 854.76110352 -177.34033203 854.3815918 C-181.66864057 852.33158361 -185.97056987 850.23758918 -190.2487793 848.08496094 C-191.77239437 847.31847336 -193.30075583 846.56143253 -194.83007812 845.80639648 C-195.62027344 845.41581055 -196.41046875 845.02522461 -197.22460938 844.62280273 C-198.42150391 844.03305664 -198.42150391 844.03305664 -199.64257812 843.43139648 C-201.24468107 842.5976757 -202.82067333 841.71184647 -204.36645508 840.77783203 C-206.92745681 839.2506893 -209.52514539 837.84954195 -212.16210938 836.45874023 C-218.04674063 833.26202869 -223.53823929 829.624262 -229.03710938 825.81030273 C-230.00044189 825.14691895 -230.96377441 824.48353516 -231.95629883 823.80004883 C-234.65544691 821.93628056 -237.34822096 820.06383389 -240.03710938 818.18530273 C-240.66278809 817.74831055 -241.2884668 817.31131836 -241.93310547 816.86108398 C-248.90667954 811.96131545 -255.49513394 806.64297285 -262.03710938 801.18530273 C-263.56078125 799.92459961 -263.56078125 799.92459961 -265.11523438 798.63842773 C-270.83095396 793.90551779 -276.5290858 789.15938525 -282.03710938 784.18530273 C-282.55080078 783.7220459 -283.06449219 783.25878906 -283.59375 782.78149414 C-299.01401542 768.81066444 -312.99296484 753.60565576 -326.22460938 737.56030273 C-326.82724609 736.83584961 -327.42988281 736.11139648 -328.05078125 735.36499023 C-332.25316709 730.27230751 -336.25266314 725.21826958 -339.03710938 719.18530273 C-339.69710937 719.18530273 -340.35710937 719.18530273 -341.03710938 719.18530273 C-341.3284375 718.62842773 -341.61976563 718.07155273 -341.91992188 717.49780273 C-343.98912234 713.64570628 -346.07640601 709.99789862 -348.78710938 706.56030273 C-352.97535886 701.14335762 -356.33091563 695.20226066 -359.79003906 689.30737305 C-361.09730535 687.08287059 -362.41411207 684.8642138 -363.73242188 682.64624023 C-364.62595349 681.13860695 -365.51918917 679.63079822 -366.41210938 678.12280273 C-366.82879883 677.42098877 -367.24548828 676.7191748 -367.67480469 675.99609375 C-374.03710938 665.19910195 -374.03710938 665.19910195 -374.03710938 662.18530273 C-374.69710937 662.18530273 -375.35710937 662.18530273 -376.03710938 662.18530273 C-376.35164063 661.40026367 -376.66617188 660.61522461 -376.99023438 659.80639648 C-379.69933519 653.01585263 -379.69933519 653.01585263 -383.09960938 646.56030273 C-385.56900919 642.25876757 -387.27943383 637.81449217 -389.03710938 633.18530273 C-389.8692265 630.99733981 -390.70260881 628.80985772 -391.53710938 626.62280273 C-391.95863281 625.51807617 -392.38015625 624.41334961 -392.81445312 623.27514648 C-393.83462306 620.69701736 -394.9252904 618.19512172 -396.09960938 615.68530273 C-400.31225054 606.36694047 -402.63411636 596.21637643 -405.28686523 586.36523438 C-406.33341055 582.51997641 -407.52959448 578.87968474 -409.03710938 575.18530273 C-409.38463485 573.79777508 -409.69813942 572.4012169 -409.97460938 570.99780273 C-410.67396391 567.65089176 -411.55651859 564.44116377 -412.59960938 561.18530273 C-413.81544011 557.2642486 -414.4662772 553.5785928 -414.72851562 549.48608398 C-414.99246608 547.04522909 -414.99246608 547.04522909 -415.93945312 544.23217773 C-417.59620207 538.65527608 -418.22384723 532.86964346 -419.03710938 527.12280273 C-419.20210937 525.98391602 -419.36710938 524.8450293 -419.53710938 523.67163086 C-419.87273419 521.34978885 -420.20422279 519.02734548 -420.53173828 516.7043457 C-420.86803255 514.36263284 -421.21922936 512.02301073 -421.58544922 509.68579102 C-422.84388835 501.50079316 -423.45966065 493.46112892 -423.66210938 485.18530273 C-423.67946136 484.51332855 -423.69681335 483.84135437 -423.71469116 483.14901733 C-423.85696023 477.49493539 -423.94992376 471.84046193 -424.03710938 466.18530273 C-424.05384705 465.18952209 -424.07058472 464.19374146 -424.08782959 463.16778564 C-424.58169253 433.22424735 -424.21320337 403.86763372 -420.03710938 374.18530273 C-419.89337891 373.11812012 -419.74964844 372.0509375 -419.6015625 370.95141602 C-418.32123196 361.53525372 -416.52705779 352.36291366 -414.03710938 343.18530273 C-413.55561458 341.20670117 -413.07649449 339.22752039 -412.59960938 337.24780273 C-410.59084689 329.21275281 -408.13786277 321.31713571 -405.41210938 313.49780273 C-404.413459 310.56525799 -403.74277033 307.73783507 -403.22460938 304.68530273 C-401.15196572 293.53831165 -396.38984488 282.60626361 -392.03710938 272.18530273 C-391.37710938 272.18530273 -390.71710938 272.18530273 -390.03710938 272.18530273 C-389.94236328 271.36352539 -389.94236328 271.36352539 -389.84570312 270.52514648 C-388.64498997 262.7521087 -385.4928496 256.13949342 -382.02685547 249.17504883 C-381.0554263 247.22212635 -380.10145826 245.26148876 -379.15039062 243.29858398 C-370.85998402 226.31470597 -361.52191534 209.91251169 -351.03710938 194.18530273 C-350.37710938 194.18530273 -349.71710938 194.18530273 -349.03710938 194.18530273 C-348.94042969 193.62327148 -348.84375 193.06124023 -348.74414062 192.48217773 C-347.86894796 189.63901042 -346.51099975 187.81715657 -344.72460938 185.43530273 C-344.00660156 184.47237305 -343.28859375 183.50944336 -342.54882812 182.51733398 C-342.14970215 181.98833496 -341.75057617 181.45933594 -341.33935547 180.91430664 C-339.92427537 179.035492 -338.52122464 177.14805216 -337.11914062 175.25952148 C-329.27494041 164.71414004 -321.31965159 154.44534854 -312.40429688 144.77124023 C-310.4244907 142.60848167 -308.50212975 140.41552997 -306.59960938 138.18530273 C-302.02574576 132.91612494 -297.00053637 128.08284353 -292.03710938 123.18530273 C-289.51616327 120.67610017 -287.00938964 118.15680581 -284.52929688 115.60717773 C-279.17817503 110.1442414 -273.71458155 105.13849336 -267.72070312 100.36889648 C-265.06482154 98.20785164 -262.55126073 95.94630754 -260.03710938 93.62280273 C-246.37337698 81.18530273 -246.37337698 81.18530273 -242.03710938 81.18530273 C-242.03710938 80.52530273 -242.03710938 79.86530273 -242.03710938 79.18530273 C-240.23632812 77.70483398 -240.23632812 77.70483398 -237.72460938 75.99780273 C-236.80292969 75.37131836 -235.88125 74.74483398 -234.93164062 74.09936523 C-230.33961516 71.06280319 -225.70213971 68.10825407 -221.03710938 65.18530273 C-219.74781314 64.36796298 -218.45876548 63.55023104 -217.16992188 62.73217773 C-215.7924762 61.86213509 -214.41487255 60.9923425 -213.03710938 60.12280273 C-212.09520752 59.52375122 -212.09520752 59.52375122 -211.13427734 58.91259766 C-205.57010833 55.41631912 -199.82755324 52.28881401 -194.03710938 49.18530273 C-193.07015137 48.66331299 -192.10319336 48.14132324 -191.10693359 47.60351562 C-179.07639565 41.13683043 -167.16280406 35.0618533 -154.29101562 30.45483398 C-151.00957622 29.42559046 -151.00957622 29.42559046 -149.03710938 27.18530273 C-146.89038086 26.48974609 -146.89038086 26.48974609 -144.22070312 25.83764648 C-138.87230827 24.45115454 -133.70073565 22.73975047 -128.48461914 20.92431641 C-118.27096925 17.37440088 -108.26270403 14.32079646 -97.61254883 12.43164062 C-93.32143436 11.66683938 -89.3818354 10.73193586 -85.28710938 9.18530273 C-59.09802294 -0.25019791 -27.52887744 -0.00260099 0 0 Z " fill="#FBFCF9" transform="translate(559.037109375,172.814697265625)"/>
<path d="M0 0 C278.19 0 556.38 0 843 0 C843 94.6871547 843 94.6871547 838.875 127.8125 C838.69114477 129.30660847 838.50755083 130.80074912 838.32421875 132.29492188 C837.88579 135.86365312 837.44394641 139.4319504 837 143 C836.34 143 835.68 143 835 143 C835.04640625 144.24523438 835.0928125 145.49046875 835.140625 146.7734375 C835.1360958 152.56854399 833.9939227 157.98510481 832.75 163.625 C832.40775391 165.22093994 832.40775391 165.22093994 832.05859375 166.84912109 C830.57705993 173.65776222 828.90941575 180.37603888 827.03125 187.0859375 C825.66596452 192.09642854 824.61294561 197.17893078 823.5 202.25 C822.05609642 208.76342718 820.52147109 215.0210922 818.03125 221.2265625 C816.37986594 225.66778478 815.16070115 230.24105174 813.92578125 234.8137207 C812.70489424 239.16210644 811.08524067 242.96829453 808.99462891 246.96655273 C807.30575972 250.41932432 806.14531249 254.04452917 804.9375 257.6875 C803.34577355 262.48801188 801.73825473 266.71125298 799 271 C797.98526749 272.99256566 796.98556371 274.99284675 796 277 C795.27490234 278.41539062 795.27490234 278.41539062 794.53515625 279.859375 C791.66305466 285.49692189 789.0276543 291.13042044 786.76171875 297.0390625 C786 299 786 299 785 301 C784.34 301 783.68 301 783 301 C782.85884766 301.79857422 782.85884766 301.79857422 782.71484375 302.61328125 C781.76728443 305.77699024 780.22562042 308.3330901 778.5625 311.1875 C778.20978027 311.79335937 777.85706055 312.39921875 777.49365234 313.0234375 C776.73065915 314.33237407 775.96560904 315.64011335 775.19873047 316.94677734 C773.98481131 319.02601565 772.78984871 321.11527101 771.59765625 323.20703125 C765.84476443 333.23399002 759.51476743 342.55909724 752.63134766 351.84667969 C750.66175266 354.54295566 749.0627214 356.8118358 748 360 C746.68098696 361.34750145 745.34526935 362.6787105 744 364 C742.61854488 365.79178832 741.26661531 367.60655049 739.9375 369.4375 C731.75709802 380.50670768 722.60169249 390.61025726 713.1640625 400.61328125 C710.74479106 403.18455251 708.40757904 405.80572292 706.125 408.5 C703.35965438 411.71471428 700.32288265 414.42355327 697.08984375 417.16015625 C694.84368644 419.13761436 692.77339653 421.22961266 690.6875 423.375 C686.28488413 427.82246425 681.57799673 431.72855807 676.69140625 435.62939453 C674.7433058 437.20800826 672.82443502 438.8187681 670.90625 440.43359375 C663.22253529 446.88554169 655.62825268 452.84288346 647 458 C644.76644344 459.431211 642.53798629 460.86890783 640.3125 462.3125 C638.52337114 463.46222543 636.73256063 464.6092924 634.94140625 465.75585938 C633.58087202 466.62775103 632.22160262 467.50161805 630.86328125 468.37695312 C628.68400486 469.77901856 626.49893389 471.17162928 624.3125 472.5625 C623.62905518 473.00440674 622.94561035 473.44631348 622.24145508 473.90161133 C617.34209332 477 617.34209332 477 614 477 C614 477.66 614 478.32 614 479 C612.98421875 479.50789063 611.9684375 480.01578125 610.921875 480.5390625 C610.261875 480.86914307 609.601875 481.19922363 608.921875 481.53930664 C607.45859292 482.27078319 605.99504568 483.00172952 604.53125 483.73217773 C601.29059105 485.35002856 598.05339988 486.97270819 594.828125 488.62109375 C589.16201386 491.50893216 583.43182176 494.22159061 577.625 496.8125 C576.95855469 497.11486572 576.29210938 497.41723145 575.60546875 497.72875977 C571.74612232 499.42498911 568.1867778 500.50095683 564 501 C564 501.66 564 502.32 564 503 C562.6078125 503.37125 562.6078125 503.37125 561.1875 503.75 C558.10265798 504.6270028 555.12533181 505.68107716 552.125 506.8125 C546.12440381 509.02110915 540.02917255 510.8220329 533.88671875 512.58203125 C530.41653316 513.57768729 526.96623429 514.6251634 523.51953125 515.69921875 C490.17507748 525.97350662 456.14818956 529.55767428 421.35449219 529.33618164 C417.98972273 529.31615817 414.6258869 529.31305223 411.26112938 529.31969929 C407.97353257 529.32386214 404.68601292 529.31187726 401.3984375 529.30078125 C399.61860977 529.30214836 399.61860977 529.30214836 397.80282593 529.30354309 C391.49909443 529.25021904 385.63222253 528.7194712 379.45593262 527.4624176 C376.05215686 526.82153446 372.77872333 526.67708945 369.31640625 526.55078125 C361.72040452 526.17770563 354.40068852 525.04435142 346.94506836 523.58081055 C344.93614595 523.18723472 342.92461662 522.81031318 340.91210938 522.43554688 C329.14618752 520.20617857 317.60790621 517.23953934 306.1875 513.625 C305.54208252 513.42076416 304.89666504 513.21652832 304.23168945 513.00610352 C283.18371102 506.30684847 262.6847489 499.10444951 243 489 C243 488.34 243 487.68 243 487 C242.195625 486.95875 241.39125 486.9175 240.5625 486.875 C236.34319678 485.83867991 233.7327904 483.94673469 230.21484375 481.4765625 C227.30404704 479.53603136 224.22929402 478.3362596 221 477 C214.47440017 473.73215712 208.43474498 470.03984363 202.51953125 465.7734375 C199.9631781 463.97408195 197.34821598 462.32782563 194.6875 460.6875 C188.72004045 456.92741297 183.20648578 452.65611033 177.67041016 448.30273438 C176.00424438 447.00331015 174.3238345 445.72519949 172.63671875 444.453125 C166.70260886 439.9706551 160.97759505 435.35450889 155.51171875 430.30078125 C154.13601046 429.04060678 152.75240405 427.78819493 151.3347168 426.57543945 C145.60864202 421.67565715 140.26834762 416.42107897 134.9543457 411.0847168 C133.4400742 409.56508332 131.9205257 408.05087483 130.40039062 406.53710938 C125.05785901 401.1991044 119.85309573 395.79254888 115 390 C114.14088013 388.97700806 114.14088013 388.97700806 113.2644043 387.93334961 C111.53873865 385.86135162 109.82961417 383.77683612 108.125 381.6875 C107.54492188 380.98560547 106.96484375 380.28371094 106.3671875 379.56054688 C105.81546875 378.88443359 105.26375 378.20832031 104.6953125 377.51171875 C104.20047363 376.90803467 103.70563477 376.30435059 103.19580078 375.68237305 C102 374 102 374 101 371 C100.34 371 99.68 371 99 371 C97.35084577 368.73881961 95.81898665 366.4788328 94.3125 364.125 C93.40974201 362.74160772 92.50609339 361.35879623 91.6015625 359.9765625 C90.93688965 358.9561084 90.93688965 358.9561084 90.25878906 357.91503906 C87.12931024 353.15405537 83.83523217 348.49666102 80.4609375 343.90625 C77 339.18854749 77 339.18854749 77 337 C76.34 337 75.68 337 75 337 C74.76539063 336.33613281 74.53078125 335.67226562 74.2890625 334.98828125 C72.64183426 331.16970669 70.52990402 327.73754026 68.375 324.1875 C64.82434744 318.24786023 61.47202716 312.25158431 58.375 306.0625 C58.03259277 305.38276123 57.69018555 304.70302246 57.33740234 304.00268555 C55 299.26042073 55 299.26042073 55 297 C54.34 297 53.68 297 53 297 C52.73445313 296.24074219 52.46890625 295.48148438 52.1953125 294.69921875 C51.84210938 293.70535156 51.48890625 292.71148438 51.125 291.6875 C50.77695313 290.70136719 50.42890625 289.71523437 50.0703125 288.69921875 C49.04694076 285.84405623 49.04694076 285.84405623 47 283 C47 282.01 47 281.02 47 280 C46.34 280 45.68 280 45 280 C43.58471587 276.34280562 42.1768445 272.68283783 40.77490234 269.02050781 C40.24306967 267.63378848 39.70944586 266.24775515 39.17431641 264.86230469 C38.34052501 262.70169743 37.51345408 260.53861368 36.6875 258.375 C36.42114746 257.68857422 36.15479492 257.00214844 35.88037109 256.29492188 C34.7736042 253.37939412 34 251.1470878 34 248 C33.34 248 32.68 248 32 248 C30.07528683 242.66164461 28.60108576 237.65020618 28 232 C27.34 232 26.68 232 26 232 C18.60632127 206.43916977 18.60632127 206.43916977 16.60546875 194.890625 C16.10224506 192.03947947 16.10224506 192.03947947 15.02246094 189.65161133 C13.98413232 186.95884937 13.47052322 184.53190524 13.03515625 181.68359375 C12.87466797 180.67103516 12.71417969 179.65847656 12.54882812 178.61523438 C12.38833984 177.56658203 12.22785156 176.51792969 12.0625 175.4375 C11.12136564 169.29882527 10.12408244 163.2764741 8.5 157.27734375 C6.5255885 149.66388863 5.7732653 141.92490229 4.9375 134.125 C4.61658259 131.21056575 4.29097135 128.29666765 3.96484375 125.3828125 C3.88616058 124.66933655 3.80747742 123.9558606 3.72640991 123.22076416 C3.22584817 118.75264726 2.61733316 114.31292323 1.94140625 109.8671875 C-2.97331622 74.01622441 0 34.29296866 0 0 Z " fill="#FCFCF9" transform="translate(1071,1349)"/>
<path d="M0 0 C274.56 0 549.12 0 832 0 C832 103.94108133 832 103.94108133 829.49511719 118.06982422 C828.57247521 123.53015412 828.15704433 129.0529799 827.625 134.5625 C826.43575884 146.23270316 824.60146143 157.56860397 822 169 C821.59587891 170.84464844 821.59587891 170.84464844 821.18359375 172.7265625 C819.8784591 178.562086 818.40994867 184.33062918 816.74609375 190.07421875 C816.09984765 192.60845085 815.60101721 195.11010177 815.125 197.6796875 C814.05969812 203.10803837 812.38315575 208.2219048 810.5625 213.4375 C807.78202752 221.52680036 807.78202752 221.52680036 805.4375 229.75 C800.3721965 249.18733932 792.24477884 268.27908759 783 286.06445312 C781.64150517 288.69388355 780.32028657 291.3412189 779.00097656 293.99047852 C778.33339996 295.33067925 777.66347421 296.66971238 776.99121094 298.00756836 C775.34271368 301.2889733 773.71757856 304.57809456 772.140625 307.89453125 C765.17461366 322.41627878 756.39762916 335.82400282 747.12890625 348.97265625 C745.69829682 351.00700911 744.28963102 353.05695496 742.90234375 355.12109375 C737.22608003 363.53762272 730.9816972 371.35903637 724.50878906 379.17089844 C722.44052397 381.67825152 720.41166024 384.21694945 718.375 386.75 C710.28112298 396.58449573 701.4617689 405.64839283 692.5 414.6875 C691.63407227 415.56647949 690.76814453 416.44545898 689.87597656 417.35107422 C683.89698565 423.33794111 677.6010748 428.71561506 671 434 C669.86381366 434.95910857 668.73248411 435.92404817 667.609375 436.8984375 C648.21057637 453.70012921 626.6040548 467.30635784 604.21240234 479.75439453 C602.78067524 480.56047174 601.35825144 481.3834001 599.94775391 482.22607422 C595.30103299 485 595.30103299 485 592 485 C592 485.66 592 486.32 592 487 C591.40574219 487.21914062 590.81148437 487.43828125 590.19921875 487.6640625 C585.40183863 489.4994521 580.9099638 491.52936725 576.4375 494.0625 C572.48730004 496.27240208 568.73773249 497.91933188 564.41796875 499.234375 C561.54088295 500.14537471 558.75036978 501.21918284 555.9375 502.3125 C554.82246094 502.74304687 553.70742188 503.17359375 552.55859375 503.6171875 C550.15200225 504.55235039 547.74841631 505.49527911 545.34765625 506.4453125 C529.70773371 512.55714219 513.59951142 516.83243728 497.19482422 520.35180664 C492.92829063 521.27578697 489.04264471 522.32913458 485 524 C476.89728637 525.68855393 468.58202861 526.43159739 460.35668945 527.30273438 C459.63312256 527.37943359 458.90955566 527.45613281 458.1640625 527.53515625 C457.52936035 527.600979 456.8946582 527.66680176 456.24072266 527.73461914 C454.477873 527.94340293 452.72279493 528.21786343 450.97290039 528.51635742 C445.76253361 529.26473024 440.52347625 529.1817271 435.26953125 529.203125 C433.5660125 529.21357849 433.5660125 529.21357849 431.82807922 529.22424316 C428.15618192 529.24164871 424.48443691 529.24796923 420.8125 529.25 C419.56458679 529.25100708 418.31667358 529.25201416 417.03094482 529.25305176 C399.11491194 529.24323491 381.7234008 528.74722877 364 526 C361.77243411 525.69313638 359.54455955 525.38850639 357.31640625 525.0859375 C347.0135165 523.62752042 337.3729415 521.83351162 327.59765625 518.21875 C323.44115307 516.81068378 319.29166545 515.88768167 315 515 C305.38330652 512.99158699 295.79435437 510.47432064 287 506 C285.34756553 505.53731835 283.69474789 505.07591006 282.0390625 504.625 C278.82403202 503.63955004 275.74979308 502.33000495 272.640625 501.0546875 C270.11374603 500.04543111 267.5705582 499.14102171 265 498.25 C251.7545767 493.44876758 239.21892517 487.35039527 227.08544922 480.21923828 C224.80769009 478.88756782 222.51606037 477.58186998 220.22265625 476.27734375 C218.64803368 475.37309867 217.07380544 474.46816651 215.5 473.5625 C214.75097412 473.13727051 214.00194824 472.71204102 213.23022461 472.27392578 C211.45274715 471.23903425 209.72080354 470.12661519 208 469 C208 468.34 208 467.68 208 467 C207.21625 466.814375 206.4325 466.62875 205.625 466.4375 C200.49155472 464.40182342 196.41933792 461.27543574 192 458 C191.05769531 457.30390625 190.11539063 456.6078125 189.14453125 455.890625 C186.08365428 453.61013014 183.0399095 451.30836021 180 449 C179.4750293 448.60409668 178.95005859 448.20819336 178.40917969 447.80029297 C166.4916765 438.80957769 155.18022065 429.48211635 144.75610352 418.77050781 C141.65420054 415.5907042 138.49373254 412.75663288 135 410 C133.98539436 408.92830658 133.00496363 407.82315562 132.0625 406.6875 C129.09502344 403.20479125 126.00805316 399.86225968 122.86621094 396.53808594 C117.92376183 391.30596948 113.05507663 386.11940913 108.75 380.33984375 C106.95345004 377.93776021 105.08777289 375.59745089 103.21313477 373.25610352 C96.43858995 364.76223898 90.12760924 355.96968397 84 347 C83.60603027 346.4234668 83.21206055 345.84693359 82.80615234 345.25292969 C76.33215045 335.6861426 70.73500208 325.62353842 65.109375 315.54296875 C63.23800591 312.19038475 61.344074 308.8562065 59.390625 305.55078125 C59.01236572 304.90753906 58.63410645 304.26429688 58.24438477 303.6015625 C57.26627191 301.9458427 56.27997344 300.2949659 55.29296875 298.64453125 C54 296 54 296 54 292 C53.34 292 52.68 292 52 292 C51.73445313 291.22914063 51.46890625 290.45828125 51.1953125 289.6640625 C50.84210938 288.66117188 50.48890625 287.65828125 50.125 286.625 C49.77695313 285.62726563 49.42890625 284.62953125 49.0703125 283.6015625 C48.15217498 280.89557882 48.15217498 280.89557882 46 279 C45.36506504 277.41554866 44.79049149 275.80660389 44.25 274.1875 C42.70863132 269.78276477 40.93478734 265.59259684 38.9375 261.375 C36.89790724 257.05044993 35.15956433 252.81318072 33.76147461 248.24560547 C33.00650143 246.01917285 32.09882764 243.95581978 31.1015625 241.828125 C28.9981412 237.14980937 27.43496163 232.41924157 26 227.5 C25.7429126 226.62980225 25.4858252 225.75960449 25.22094727 224.86303711 C23.05167079 217.40678615 21.22466187 209.89783284 19.52392578 202.32324219 C18.49766855 197.77251347 17.43853401 193.2296359 16.375 188.6875 C16.16866943 187.78523682 15.96233887 186.88297363 15.74975586 185.95336914 C15.5513208 185.10637451 15.35288574 184.25937988 15.1484375 183.38671875 C14.97489746 182.63608154 14.80135742 181.88544434 14.62255859 181.11206055 C14.06311085 178.9699894 14.06311085 178.9699894 12.97924805 177.01928711 C11.87344552 174.73903463 11.52292734 172.81188798 11.18359375 170.3046875 C10.99700195 168.98404297 10.99700195 168.98404297 10.80664062 167.63671875 C10.68482422 166.72535156 10.56300781 165.81398438 10.4375 164.875 C10.18923437 163.05947802 9.93807271 161.24434899 9.68359375 159.4296875 C9.57587646 158.62772949 9.46815918 157.82577148 9.35717773 156.99951172 C9.08585894 154.93591728 9.08585894 154.93591728 8 153 C7.74720395 151.57110559 7.53762572 150.13441832 7.3515625 148.6953125 C7.23474121 147.81141846 7.11791992 146.92752441 6.99755859 146.0168457 C6.87461426 145.06253662 6.75166992 144.10822754 6.625 143.125 C5.51625559 134.72104878 4.33024465 126.33567433 3.00244141 117.96337891 C-2.93531851 79.59316482 0 38.21425543 0 0 Z " fill="#FBFCF9" transform="translate(136,1349)"/>
<path d="M0 0 C278.19 0 556.38 0 843 0 C843 89 843 89 841 110 C840.67 110 840.34 110 840 110 C840 74.69 840 39.38 840 3 C563.13 2.67 286.26 2.34 1 2 C1.33 25.1 1.66 48.2 2 72 C2 82.23 2 92.46 2 103 C1.67 103 1.34 103 1 103 C-1.28392699 68.74109508 0 34.33495142 0 0 Z " fill="#D8DAD9" transform="translate(1071,1349)"/>
<path d="M0 0 C278.19 0 556.38 0 843 0 C843 89 843 89 841 110 C840.67 110 840.34 110 840 110 C839.97039712 106.41668473 839.95300297 102.83340182 839.9375 99.25 C839.92912109 98.25355469 839.92074219 97.25710938 839.91210938 96.23046875 C839.90888672 95.23144531 839.90566406 94.23242188 839.90234375 93.203125 C839.89710693 92.30239258 839.89187012 91.40166016 839.88647461 90.47363281 C840.05539028 85.30517658 840.57055391 80.15335312 841 75 C841.33 50.58 841.66 26.16 842 1 C564.14 1 286.28 1 0 1 C0 0.67 0 0.34 0 0 Z " fill="#808382" transform="translate(1071,1349)"/>
<path d="M0 0 C-1.175625 0.433125 -2.35125 0.86625 -3.5625 1.3125 C-8.27588395 3.07898715 -12.89086692 5.05486961 -17.484375 7.11328125 C-18.35578125 7.48839844 -19.2271875 7.86351562 -20.125 8.25 C-21.33542969 8.78367187 -21.33542969 8.78367187 -22.5703125 9.328125 C-25.41294818 10.11419146 -27.18754616 9.78068114 -30 9 C-27.61226218 6.61226218 -26.12403818 6.36344674 -22.875 5.5625 C-18.74542081 4.49506308 -14.82219736 3.24335453 -10.8515625 1.69921875 C-2.73317308 -1.36658654 -2.73317308 -1.36658654 0 0 Z " fill="#5A5A59" transform="translate(1622,1046)"/>
<path d="M0 0 C1.33332095 2.6666419 0.67102033 4.16680303 0 7 C-0.99 6.67 -1.98 6.34 -3 6 C-2.773125 6.598125 -2.54625 7.19625 -2.3125 7.8125 C-2 10 -2 10 -3.3125 11.75 C-5 13 -5 13 -7 13 C-7.33 13.99 -7.66 14.98 -8 16 C-8.66 16 -9.32 16 -10 16 C-10.33 17.32 -10.66 18.64 -11 20 C-11.66 20 -12.32 20 -13 20 C-11.58160025 15.95057896 -9.62488736 12.86833149 -7.0625 9.4375 C-6.02802734 8.04337891 -6.02802734 8.04337891 -4.97265625 6.62109375 C-3.99619141 5.32365234 -3.99619141 5.32365234 -3 4 C-2.42121094 3.22785156 -1.84242188 2.45570313 -1.24609375 1.66015625 C-0.83488281 1.11230469 -0.42367187 0.56445312 0 0 Z " fill="#3E3E3D" transform="translate(892,884)"/>
<path d="M0 0 C0.33 0.66 0.66 1.32 1 2 C-0.17057904 5.51173712 -1.68452295 6.69304936 -4.3125 9.25 C-6.23594598 11.21817728 -7.92365437 13.11175292 -9.625 15.25 C-12 18 -12 18 -15 19 C-13.4563893 15.40654069 -11.27381666 12.91811796 -8.625 10.0625 C-5.61050203 6.80099467 -2.73973034 3.49659649 0 0 Z " fill="#464947" transform="translate(1812,910)"/>
<path d="M0 0 C0.33 0.66 0.66 1.32 1 2 C-3.16704183 6.85743929 -7.41844996 11.53019508 -12 16 C-12.99 15.67 -13.98 15.34 -15 15 C-10.05 10.05 -5.1 5.1 0 0 Z " fill="#434342" transform="translate(1789,1744)"/>
<path d="M0 0 C-2.77997641 2.77997641 -5.69609228 2.65773811 -9.4375 3.0625 C-14.79073328 3.65763692 -14.79073328 3.65763692 -20 5 C-21.39439664 5.06665376 -22.79169875 5.08538199 -24.1875 5.0625 C-26.0746875 5.0315625 -26.0746875 5.0315625 -28 5 C-24.38942179 2.59294786 -21.0024706 2.08113434 -16.8125 1.375 C-15.71711914 1.17390625 -15.71711914 1.17390625 -14.59960938 0.96875 C-9.66629519 0.11230219 -5.00564502 -0.12471596 0 0 Z " fill="#A8AAA9" transform="translate(1444,176)"/>
<path d="M0 0 C0 4.19338012 -1.88823355 5.30809152 -4.73242188 8.19140625 C-5.37759766 8.82949219 -6.02277344 9.46757813 -6.6875 10.125 C-7.31333984 10.77082031 -7.93917969 11.41664063 -8.58398438 12.08203125 C-14.34787732 17.8398887 -14.34787732 17.8398887 -19 18 C-15.37178135 14.31812932 -11.63800301 10.78808061 -7.8125 7.3125 C-3.84890468 3.71700635 -3.84890468 3.71700635 0 0 Z " fill="#3E403E" transform="translate(1773,952)"/>
<path d="M0 0 C0 3.5090104 -0.97622453 4.65325693 -3.22265625 7.23828125 C-6.85198739 10.83570618 -10.94675234 13.89906878 -15 17 C-15.66 16.67 -16.32 16.34 -17 16 C-16.52054932 15.55084229 -16.04109863 15.10168457 -15.54711914 14.63891602 C-13.38541794 12.6136163 -11.22395592 10.58806149 -9.0625 8.5625 C-7.93038086 7.50192383 -7.93038086 7.50192383 -6.77539062 6.41992188 C-6.05673828 5.74638672 -5.33808594 5.07285156 -4.59765625 4.37890625 C-3.93258057 3.7557251 -3.26750488 3.13254395 -2.58227539 2.49047852 C-1.71180457 1.6705087 -0.8455974 0.8455974 0 0 Z " fill="#2B2B29" transform="translate(1767,1766)"/>
<path d="M0 0 C0.66 0.99 1.32 1.98 2 3 C0.71937515 4.7074998 -0.61767557 6.37373596 -2 8 C-2.66 8 -3.32 8 -4 8 C-4.103125 8.763125 -4.20625 9.52625 -4.3125 10.3125 C-5.04364039 13.17059424 -5.76951913 14.15742885 -8 16 C-8.66 15.67 -9.32 15.34 -10 15 C-8.89789095 13.24870343 -7.79322568 11.49901536 -6.6875 9.75 C-6.07261719 8.77546875 -5.45773437 7.8009375 -4.82421875 6.796875 C-3.29524241 4.45266287 -1.71179023 2.21215968 0 0 Z " fill="#393B3A" transform="translate(885,1694)"/>
<path d="M0 0 C-3.23461997 2.15641331 -5.67072961 2.81100973 -9.4375 3.6875 C-10.57058594 3.95949219 -11.70367187 4.23148438 -12.87109375 4.51171875 C-15.74916889 4.96085657 -17.31025087 4.98469931 -20 4 C-13.04407626 0.86301478 -7.62743978 -0.12927864 0 0 Z " fill="#585A59" transform="translate(478,181)"/>
<path d="M0 0 C-2.49840454 0.50938345 -4.99823388 1.00763114 -7.5 1.5 C-8.19609375 1.64308594 -8.8921875 1.78617188 -9.609375 1.93359375 C-14.49087203 2.88277373 -19.02718299 3.13440046 -24 3 C-24 2.67 -24 2.34 -24 2 C-16.73497314 -0.5343117 -7.47075073 -2.41754221 0 0 Z " fill="#979795" transform="translate(624,1872)"/>
<path d="M0 0 C0.66 0.33 1.32 0.66 2 1 C1.34 2.65 0.68 4.3 0 6 C-1.32 6 -2.64 6 -4 6 C-5.5159375 7.2684375 -5.5159375 7.2684375 -7.0625 8.5625 C-8.5165625 9.7690625 -8.5165625 9.7690625 -10 11 C-10.99 10.67 -11.98 10.34 -13 10 C-8.71 6.7 -4.42 3.4 0 0 Z " fill="#2F2F2E" transform="translate(1736,983)"/>
<path d="M0 0 C1.33895632 1.66215268 2.67130142 3.32963607 4 5 C4.5775 5.721875 5.155 6.44375 5.75 7.1875 C7 9 7 9 7 11 C6.01 11.33 5.02 11.66 4 12 C2.4375 10.8125 2.4375 10.8125 1 9 C1.3125 6.3125 1.3125 6.3125 2 4 C1.34 4 0.68 4 0 4 C0 2.68 0 1.36 0 0 Z " fill="#282525" transform="translate(1161,1706)"/>
<path d="M0 0 C0.33 0.66 0.66 1.32 1 2 C0.65066406 2.45890625 0.30132813 2.9178125 -0.05859375 3.390625 C-0.51363281 4.00421875 -0.96867187 4.6178125 -1.4375 5.25 C-1.88996094 5.85328125 -2.34242187 6.4565625 -2.80859375 7.078125 C-4.10538527 8.94238915 -4.10538527 8.94238915 -4.5 11.125 C-5 13 -5 13 -7.5625 14.75 C-8.7690625 15.36875 -8.7690625 15.36875 -10 16 C-8.55797524 11.84848662 -6.4989562 8.70021555 -3.875 5.1875 C-3.15054687 4.21167969 -2.42609375 3.23585938 -1.6796875 2.23046875 C-0.84824219 1.12638672 -0.84824219 1.12638672 0 0 Z " fill="#434543" transform="translate(1834,1685)"/>
<path d="M0 0 C0 4.1216293 -1.52178918 5.7391963 -4 9 C-5.92484267 10.80277948 -7.90866501 12.38396842 -10 14 C-10.66 13.67 -11.32 13.34 -12 13 C-8.04 8.71 -4.08 4.42 0 0 Z " fill="#CFCFD0" transform="translate(258,305)"/>
<path d="M0 0 C0.66 0.33 1.32 0.66 2 1 C-1.95623632 7.70459519 -1.95623632 7.70459519 -6.3125 8.9375 C-7.199375 8.958125 -8.08625 8.97875 -9 9 C-6 6 -3 3 0 0 Z " fill="#313331" transform="translate(1743,1787)"/>
<path d="M0 0 C1.32 0.66 2.64 1.32 4 2 C3.57847656 2.47050781 3.15695312 2.94101562 2.72265625 3.42578125 C2.17480469 4.04839844 1.62695312 4.67101562 1.0625 5.3125 C0.51722656 5.92738281 -0.02804687 6.54226563 -0.58984375 7.17578125 C-2.20081559 9.05241958 -2.20081559 9.05241958 -3 12 C-3.66 12 -4.32 12 -5 12 C-3.41037341 7.96479403 -1.71767682 3.98188718 0 0 Z " fill="#424443" transform="translate(1867,823)"/>
<path d="M0 0 C0.33 0.99 0.66 1.98 1 3 C-0.43359375 5.04296875 -0.43359375 5.04296875 -2.4375 7.1875 C-3.09621094 7.90292969 -3.75492188 8.61835938 -4.43359375 9.35546875 C-5.20896484 10.16951172 -5.20896484 10.16951172 -6 11 C-6.99 10.67 -7.98 10.34 -9 10 C-6.03 6.7 -3.06 3.4 0 0 Z " fill="#CCCCCD" transform="translate(245,319)"/>
<path d="M0 0 C-5.36439644 2.68219822 -9.01006953 3.3152595 -15 3 C-12.74829688 0.74829688 -11.67012422 0.48526 -8.625 -0.1875 C-7.85414062 -0.36667969 -7.08328125 -0.54585937 -6.2890625 -0.73046875 C-3.88917728 -1.01304909 -2.28329465 -0.73503321 0 0 Z " fill="#BCBFBE" transform="translate(1415,182)"/>
<path d="M0 0 C-0.56589844 0.27714844 -1.13179687 0.55429688 -1.71484375 0.83984375 C-2.44832031 1.20207031 -3.18179687 1.56429688 -3.9375 1.9375 C-5.03384766 2.47697266 -5.03384766 2.47697266 -6.15234375 3.02734375 C-7.96249027 3.86371827 -7.96249027 3.86371827 -9 5 C-10.51469448 5.23192865 -12.03754562 5.41215238 -13.5625 5.5625 C-14.80193359 5.68818359 -14.80193359 5.68818359 -16.06640625 5.81640625 C-17.02353516 5.90728516 -17.02353516 5.90728516 -18 6 C-17.67 5.34 -17.34 4.68 -17 4 C-15.02 4 -13.04 4 -11 4 C-11 3.34 -11 2.68 -11 2 C-9.54494642 1.47007308 -8.08581873 0.9513211 -6.625 0.4375 C-5.40683594 0.00244141 -5.40683594 0.00244141 -4.1640625 -0.44140625 C-2 -1 -2 -1 0 0 Z " fill="#494947" transform="translate(1646,1848)"/>
<path d="M0 0 C0.33 0.66 0.66 1.32 1 2 C-0.78150459 6.65170644 -2.51851506 8.81981814 -7 11 C-5.5140084 6.40693504 -3.14985318 3.56430755 0 0 Z " fill="#414342" transform="translate(1831,885)"/>
<path d="M0 0 C7.65217391 2.43478261 7.65217391 2.43478261 10 4 C10.75 6.125 10.75 6.125 11 8 C6.40378078 6.5129879 3.53027653 4.20187872 0 1 C0 0.67 0 0.34 0 0 Z " fill="#464647" transform="translate(791,248)"/>
<path d="M0 0 C0.33 0.99 0.66 1.98 1 3 C0.38125 3.2475 -0.2375 3.495 -0.875 3.75 C-3.15001528 4.82396211 -3.15001528 4.82396211 -4 7.0625 C-4.33 7.701875 -4.66 8.34125 -5 9 C-7.0625 9.62109375 -7.0625 9.62109375 -9 10 C-8.06409496 8.8944811 -7.12620142 7.79064547 -6.1875 6.6875 C-5.66542969 6.07261719 -5.14335938 5.45773437 -4.60546875 4.82421875 C-3.12827531 3.14575321 -1.59960869 1.56117966 0 0 Z " fill="#414341" transform="translate(850,936)"/>
<path d="M0 0 C0.33 0.99 0.66 1.98 1 3 C-0.3125 5.1875 -0.3125 5.1875 -2 7 C-2.66 7 -3.32 7 -4 7 C-4.66 8.65 -5.32 10.3 -6 12 C-6.66 12 -7.32 12 -8 12 C-6.59023295 8.96147295 -4.91129772 6.4060405 -2.875 3.75 C-2.06675781 2.69039063 -2.06675781 2.69039063 -1.2421875 1.609375 C-0.83226562 1.07828125 -0.42234375 0.5471875 0 0 Z " fill="#BDBFBF" transform="translate(1173,329)"/>
<path d="M0 0 C0.33 0.99 0.66 1.98 1 3 C-2.3 5.97 -5.6 8.94 -9 12 C-9.66 11.67 -10.32 11.34 -11 11 C-7.81316569 6.66590534 -4.13621084 3.3810038 0 0 Z " fill="#E0E0E2" transform="translate(1209,290)"/>
<path d="M0 0 C0.33 0.66 0.66 1.32 1 2 C-0.76227632 5.61730402 -2.64326421 7.80075931 -6 10 C-6.66 9.67 -7.32 9.34 -8 9 C-5.36 6.03 -2.72 3.06 0 0 Z " fill="#383937" transform="translate(857,1732)"/>
<path d="M0 0 C2.67868487 1.33934244 2.74954078 2.51692397 3.6875 5.3125 C4.09548828 6.48232422 4.09548828 6.48232422 4.51171875 7.67578125 C5.03839183 10.18274511 4.8178554 11.60132343 4 14 C3.67 12.02 3.34 10.04 3 8 C2.01 8 1.02 8 0 8 C0 5.36 0 2.72 0 0 Z " fill="#B0B1B0" transform="translate(946,460)"/>
<path d="M0 0 C0.33 0.99 0.66 1.98 1 3 C-0.81725675 5.82684384 -2.03937946 7.65310925 -5.25 8.8125 C-5.8275 8.874375 -6.405 8.93625 -7 9 C-5.44499019 5.18315774 -2.96404505 2.80804268 0 0 Z " fill="#323230" transform="translate(1797,1735)"/>
<path d="M0 0 C0 3 0 3 -1.75 4.82421875 C-2.4925 5.43910156 -3.235 6.05398438 -4 6.6875 C-4.7425 7.31011719 -5.485 7.93273437 -6.25 8.57421875 C-6.8275 9.04472656 -7.405 9.51523437 -8 10 C-8.66 9.67 -9.32 9.34 -10 9 C-9.0479279 7.99403703 -8.08812654 6.99538437 -7.125 6 C-6.32449219 5.1646875 -6.32449219 5.1646875 -5.5078125 4.3125 C-4 3 -4 3 -2 3 C-2 2.34 -2 1.68 -2 1 C-1.34 0.67 -0.68 0.34 0 0 Z " fill="#3C3C3A" transform="translate(832,954)"/>
<path d="M0 0 C0.33 1.32 0.66 2.64 1 4 C-1.4375 6.75 -1.4375 6.75 -4 9 C-4.66 8.67 -5.32 8.34 -6 8 C-4.02 5.36 -2.04 2.72 0 0 Z " fill="#383A37" transform="translate(1811,1717)"/>
<path d="M0 0 C0.33 0.66 0.66 1.32 1 2 C-0.12642595 5.37927784 -1.00448298 6.47296158 -4.125 8.125 C-4.74375 8.41375 -5.3625 8.7025 -6 9 C-4.47291037 5.56404834 -2.40072955 2.88087546 0 0 Z " fill="#3A3C3B" transform="translate(1812,910)"/>
<path d="M0 0 C0.99 0.33 1.98 0.66 3 1 C3 1.66 3 2.32 3 3 C0.6875 5.1875 0.6875 5.1875 -2 7 C-2.99 6.67 -3.98 6.34 -5 6 C-3.35 4.02 -1.7 2.04 0 0 Z " fill="#2E2E2C" transform="translate(876,906)"/>
<path d="M0 0 C1.12377697 3.30435084 0.89554742 5.0506862 -0.4375 8.25 C-0.72496094 8.95640625 -1.01242187 9.6628125 -1.30859375 10.390625 C-1.53675781 10.92171875 -1.76492188 11.4528125 -2 12 C-2.33 12 -2.66 12 -3 12 C-3.34833144 7.12335991 -2.41685712 4.22949995 0 0 Z " fill="#979A99" transform="translate(951,758)"/>
<path d="M0 0 C0.33 0 0.66 0 1 0 C2.35384615 6.27692308 2.35384615 6.27692308 0.5625 9.9375 C-0.2109375 10.9584375 -0.2109375 10.9584375 -1 12 C-2.45606519 7.47907032 -1.27032841 4.48351204 0 0 Z " fill="#464948" transform="translate(1900,731)"/>
<path d="M0 0 C0.33 1.32 0.66 2.64 1 4 C0.34 4 -0.32 4 -1 4 C-1.33 4.66 -1.66 5.32 -2 6 C-3.64363134 6.72159424 -5.31050386 7.39351421 -7 8 C-6.02133662 6.85373678 -5.04205413 5.70800212 -4.0625 4.5625 C-3.51722656 3.92441406 -2.97195313 3.28632812 -2.41015625 2.62890625 C-1.63204305 1.73008851 -0.84063472 0.84063472 0 0 Z " fill="#282826" transform="translate(845,1746)"/>
<path d="M0 0 C0.99 0.33 1.98 0.66 3 1 C0.69 3.31 -1.62 5.62 -4 8 C-4.33 7.01 -4.66 6.02 -5 5 C-3.625 3.5 -3.625 3.5 -2 2 C-1.34 2 -0.68 2 0 2 C0 1.34 0 0.68 0 0 Z " fill="#E2E3E2" transform="translate(1790,932)"/>
<path d="M0 0 C1.79068573 2.6860286 2.66055791 4.6626589 3.625 7.6875 C3.88539062 8.49574219 4.14578125 9.30398438 4.4140625 10.13671875 C4.60742188 10.75160156 4.80078125 11.36648438 5 12 C4.34 11.67 3.68 11.34 3 11 C3 10.34 3 9.68 3 9 C2.34 9 1.68 9 1 9 C0.67 6.03 0.34 3.06 0 0 Z " fill="#B3B5B2" transform="translate(1877,428)"/>
<path d="M0 0 C1.24546405 2.49092811 0.7767578 3.41080733 0 6 C-0.66 6 -1.32 6 -2 6 C-2.33 7.32 -2.66 8.64 -3 10 C-3.66 10 -4.32 10 -5 10 C-3.84414715 6.08788267 -2.64465038 3.1254959 0 0 Z " fill="#B2B3B4" transform="translate(1139,377)"/>
<path d="M0 0 C0.33 0.66 0.66 1.32 1 2 C-0.65 3.98 -2.3 5.96 -4 8 C-4.33 7.01 -4.66 6.02 -5 5 C-3.35 3.35 -1.7 1.7 0 0 Z " fill="#272726" transform="translate(1789,1744)"/>
<path d="M0 0 C0.97744926 3.04095325 1.16271218 4.99632687 0 8 C-1.5625 9.75 -1.5625 9.75 -3 11 C-2.32829194 7.1936543 -1.27253436 3.64793184 0 0 Z " fill="#323432" transform="translate(1891,1562)"/>
<path d="M0 0 C0.33 0.99 0.66 1.98 1 3 C-1.97 5.475 -1.97 5.475 -5 8 C-5.66 7.67 -6.32 7.34 -7 7 C-4.69 4.69 -2.38 2.38 0 0 Z " fill="#3A3A38" transform="translate(831,1760)"/>
<path d="M0 0 C0.66 0.33 1.32 0.66 2 1 C-0.25 3.5625 -0.25 3.5625 -3 6 C-4.32 5.67 -5.64 5.34 -7 5 C-4.69 3.35 -2.38 1.7 0 0 Z " fill="#3D3D3C" transform="translate(790,988)"/>
<path d="M0 0 C0.99 0.495 0.99 0.495 2 1 C2 1.66 2 2.32 2 3 C2.66 3 3.32 3 4 3 C4.99 4.98 5.98 6.96 7 9 C5 9 5 9 2.9375 7.3125 C0.82124375 4.78664577 0.35880982 3.22928839 0 0 Z " fill="#CDCDCB" transform="translate(874,327)"/>
<path d="M0 0 C0.66 0.33 1.32 0.66 2 1 C-2.30769231 4.93846154 -2.30769231 4.93846154 -5.8125 5.25 C-6.534375 5.1675 -7.25625 5.085 -8 5 C-5.45378681 2.99940392 -3.01962385 1.20784954 0 0 Z " fill="#474746" transform="translate(718,1839)"/>
<path d="M0 0 C0.33 0 0.66 0 1 0 C1.36923077 4.55384615 1.36923077 4.55384615 -0.5 6.8125 C-0.995 7.204375 -1.49 7.59625 -2 8 C-2.66 7.67 -3.32 7.34 -4 7 C-2.68 4.69 -1.36 2.38 0 0 Z " fill="#313332" transform="translate(1840,1675)"/>
<path d="M0 0 C0.33 0.66 0.66 1.32 1 2 C-0.32 3.65 -1.64 5.3 -3 7 C-3.99 6.67 -4.98 6.34 -6 6 C-4.02 4.02 -2.04 2.04 0 0 Z " fill="#393A38" transform="translate(1795,930)"/>
<path d="M0 0 C0.33 0.99 0.66 1.98 1 3 C-0.28965176 4.37562854 -1.62689293 5.70766393 -3 7 C-3.66 7 -4.32 7 -5 7 C-3.70700306 4.11562221 -2.34058637 2.12780579 0 0 Z " fill="#323232" transform="translate(863,922)"/>
<path d="M0 0 C3.00617269 3.00617269 2.59585316 5.82381598 3 10 C1.5 8.9375 1.5 8.9375 0 7 C-0.1875 3.3125 -0.1875 3.3125 0 0 Z " fill="#A8A8A6" transform="translate(954,485)"/>
</svg>
